<svg xmlns="http://www.w3.org/2000/svg" width="742" height="67.629" viewBox="0 0 742 67.629">
  <g id="adobe-xd" transform="translate(-143 -1329)">
    <path id="adobexd" d="M57.08.3h-44.8A12.273,12.273,0,0,0,0,12.583V55.646A12.273,12.273,0,0,0,12.283,67.929h44.8A12.273,12.273,0,0,0,69.363,55.646V12.583A12.273,12.273,0,0,0,57.08.3Zm9.364,54.219a10.471,10.471,0,0,1-10.462,10.52h-42.6A10.509,10.509,0,0,1,2.89,54.548V13.681A10.509,10.509,0,0,1,13.381,3.19H55.953A10.491,10.491,0,0,1,66.444,13.681ZM27.427,31.947,35.52,47.5c.145.231.058.462-.173.462H30.317a.567.567,0,0,1-.607-.376c-1.85-3.815-3.728-7.63-5.665-11.734h-.058C22.254,39.721,20.347,43.8,18.5,47.611a.555.555,0,0,1-.52.318H13.208c-.289,0-.318-.231-.173-.4l7.919-15.086-7.659-15.26a.234.234,0,0,1,.173-.4h4.971a.455.455,0,0,1,.52.318c1.821,3.815,3.67,7.746,5.4,11.589h.058c1.676-3.815,3.526-7.774,5.318-11.561.145-.231.231-.376.52-.376h4.653c.231,0,.318.173.173.4l-7.659,14.8Zm9.509,4.711c0-6.734,4.48-11.994,11.589-11.994a12.815,12.815,0,0,1,1.5.058V17.063a.29.29,0,0,1,.289-.289h4.566c.231,0,.289.087.289.231V43.536a20.586,20.586,0,0,0,.145,2.832c0,.173-.058.231-.231.318a17.216,17.216,0,0,1-7.4,1.676c-6.272.029-10.751-3.844-10.751-11.705Zm13.092-7.4a4.371,4.371,0,0,0-1.676-.289c-3.642,0-6.185,2.8-6.185,7.457,0,5.318,2.6,7.457,5.867,7.457a5.453,5.453,0,0,0,1.994-.318Z" transform="translate(143 1328.7)" fill="#f2f230"/>
    <rect id="Rectangle_24" data-name="Rectangle 24" width="559" height="64" transform="translate(234 1329)" fill="#f2f230"/>
    <g id="Rectangle_21" data-name="Rectangle 21" transform="translate(234 1329)" fill="none" stroke="#f2f230" stroke-width="2">
      <rect width="651" height="64" stroke="none"/>
      <rect x="1" y="1" width="649" height="62" fill="none"/>
    </g>
  </g>
</svg>
