<svg xmlns="http://www.w3.org/2000/svg" width="740" height="64" viewBox="0 0 740 64">
  <g id="illustrator" transform="translate(-145 -1240)">
    <g id="_002-illustrator" data-name="002-illustrator" transform="translate(145 1240)">
      <g id="Group_8" data-name="Group 8" transform="translate(0)">
        <g id="Group_7" data-name="Group 7">
          <path id="Path_4" data-name="Path 4" d="M59.841,0H5.766A5.7,5.7,0,0,0,0,5.622V58.345a5.7,5.7,0,0,0,5.766,5.622H59.841a5.7,5.7,0,0,0,5.766-5.622V5.622A5.7,5.7,0,0,0,59.841,0Zm1.922,58.345a1.9,1.9,0,0,1-1.922,1.874H5.766a1.9,1.9,0,0,1-1.922-1.874V5.622A1.9,1.9,0,0,1,5.766,3.748H59.841a1.9,1.9,0,0,1,1.922,1.874Z" transform="translate(0)" fill="#f2f230"/>
        </g>
      </g>
      <g id="Group_10" data-name="Group 10" transform="translate(15.504 15.117)">
        <g id="Group_9" data-name="Group 9">
          <path id="Path_5" data-name="Path 5" d="M147.783,152.2l-11.533-29.985a1.94,1.94,0,0,0-3.6,0L121.119,152.2a1.861,1.861,0,0,0,1.125,2.413,1.937,1.937,0,0,0,2.475-1.1l5.3-13.776h8.869l5.3,13.776a1.937,1.937,0,0,0,2.475,1.1A1.861,1.861,0,0,0,147.783,152.2Zm-16.325-16.208,2.993-7.781,2.993,7.781Z" transform="translate(-120.996 -121)" fill="#f2f230"/>
        </g>
      </g>
      <g id="Group_12" data-name="Group 12" transform="translate(46.259 30.11)">
        <g id="Group_11" data-name="Group 11">
          <path id="Path_6" data-name="Path 6" d="M362.922,241A1.9,1.9,0,0,0,361,242.874v14.992a1.923,1.923,0,0,0,3.844,0V242.874A1.9,1.9,0,0,0,362.922,241Z" transform="translate(-361 -241)" fill="#f2f230"/>
        </g>
      </g>
      <g id="Group_14" data-name="Group 14" transform="translate(46.259 22.614)">
        <g id="Group_13" data-name="Group 13">
          <ellipse id="Ellipse_1" data-name="Ellipse 1" cx="1.922" cy="1.874" rx="1.922" ry="1.874" fill="#f2f230"/>
        </g>
      </g>
    </g>
    <rect id="Rectangle_23" data-name="Rectangle 23" width="436" height="64" transform="translate(234 1240)" fill="#f2f230"/>
    <g id="Rectangle_21" data-name="Rectangle 21" transform="translate(234 1240)" fill="none" stroke="#f2f230" stroke-width="2">
      <rect width="651" height="64" stroke="none"/>
      <rect x="1" y="1" width="649" height="62" fill="none"/>
    </g>
  </g>
</svg>
